 <svg version="1.0" xmlns="http://www.w3.org/2000/svg"  width="500.000000pt" height="500.000000pt" viewBox="0 0 500.000000 500.000000"  preserveAspectRatio="xMidYMid meet">  <g transform="translate(0.000000,500.000000) scale(0.050000,-0.050000)" fill="#000000" stroke="none"> <path d="M4060 7482 c-150 -47 -254 -134 -322 -266 -68 -133 -102 -126 607 -126 727 0 720 1 879 -163 131 -137 165 -242 164 -512 -1 -264 -5 -258 100 -171 139 114 172 220 172 556 0 404 -53 531 -267 646 -87 46 -1204 77 -1333 36z m1285 -242 c23 -21 47 -35 55 -30 39 24 77 -65 73 -173 -1 -62 4 -109 12 -104 8 5 15 0 15 -12 0 -33 -52 -25 -83 13 -23 29 -23 31 3 16 17 -10 -5 18 -48 61 -43 44 -86 77 -95 74 -9 -2 -25 13 -37 35 -11 21 -61 62 -110 91 -94 55 -101 89 -19 89 27 0 49 9 49 19 0 26 134 -32 185 -79z"/> <path d="M3647 6988 c-235 -85 -307 -236 -307 -642 1 -470 113 -648 427 -680 l103 -11 -7 -207 c-8 -243 -12 -239 139 -99 195 180 531 311 800 311 338 0 497 206 498 646 0 408 -56 547 -267 660 -109 58 -1237 76 -1386 22z m1243 -108 c7 -11 3 -20 -9 -20 -11 0 -21 -10 -21 -21 0 -12 17 -16 39 -9 29 9 64 -11 130 -71 l91 -84 4 -283 c2 -172 7 -222 11 -127 4 85 14 155 24 155 26 0 11 -307 -16 -316 -13 -4 -23 -28 -23 -54 0 -56 -85 -162 -146 -183 -45 -14 -57 -16 -164 -25 -52 -4 -55 -7 -20 -22 26 -10 -12 -16 -109 -14 -98 1 -151 -7 -156 -22 -5 -13 -39 -24 -77 -24 -37 0 -68 -9 -68 -20 0 -11 -27 -20 -60 -20 -33 0 -60 -9 -60 -20 0 -11 -13 -20 -30 -20 -16 0 -30 -9 -30 -20 0 -11 -22 -20 -48 -20 -27 0 -52 -11 -57 -25 -7 -19 -15 -20 -37 -2 -15 13 -37 27 -48 30 -11 4 -46 36 -77 72 -32 36 -79 71 -105 77 -26 7 -43 20 -37 30 6 10 -8 18 -31 18 -188 0 -243 115 -241 503 2 396 69 521 264 492 31 -4 57 -1 57 8 0 10 -20 17 -45 17 -36 1 -39 4 -15 20 41 26 1094 26 1110 0z m282 -351 c2 -49 -4 -84 -14 -78 -10 6 -18 53 -18 104 0 116 28 94 32 -26z"/> <path d="M4545 6845 c41 -4 109 -4 150 0 41 5 8 8 -75 8 -82 0 -116 -3 -75 -8z"/> <path d="M2480 4815 c0 -53 3 -55 112 -55 l113 0 -8 -280 -8 -280 68 0 68 0 -8 280 -8 280 106 0 c101 0 105 2 105 55 l0 55 -270 0 -270 0 0 -55z"/> <path d="M3597 4866 c-4 -9 -2 -160 3 -336 l10 -320 85 -6 c97 -7 133 79 43 102 -40 11 -41 22 -35 288 l6 276 -53 6 c-29 4 -55 -1 -59 -10z"/> <path d="M3873 4867 c-7 -8 -13 -161 -13 -340 l0 -327 60 0 c56 0 60 5 60 77 0 150 64 166 143 34 59 -98 74 -111 132 -111 82 0 82 -2 -25 149 -109 153 -108 141 -10 226 98 83 100 105 12 105 -58 0 -83 -17 -160 -105 l-91 -105 -1 205 c0 206 -33 265 -107 192z"/> <path d="M4814 4868 c-8 -8 -14 -162 -14 -341 l0 -327 73 0 73 0 -12 140 -12 140 149 0 149 0 0 -140 0 -140 60 0 60 0 0 340 0 340 -60 0 -60 0 0 -148 0 -147 -145 3 -145 3 0 139 c0 138 -53 201 -116 138z"/> <path d="M6040 4540 l0 -340 60 0 c33 0 60 9 60 21 0 14 12 14 39 0 227 -122 414 256 207 419 -54 42 -175 54 -196 20 -31 -49 -50 -11 -50 100 0 120 0 120 -60 120 l-60 0 0 -340z m300 0 c103 -103 -14 -300 -134 -224 -44 28 -67 120 -44 179 36 94 110 113 178 45z"/> <path d="M3126 4630 c-72 -65 -18 -135 61 -79 74 51 173 26 173 -45 0 -18 -32 -26 -106 -26 -136 0 -194 -39 -194 -131 0 -127 179 -207 267 -119 17 17 35 30 42 30 6 0 11 -13 11 -30 0 -19 19 -30 50 -30 99 0 58 402 -47 458 -74 40 -196 27 -257 -28z m234 -249 c0 -37 -64 -81 -119 -81 -62 0 -91 42 -55 78 27 27 174 30 174 3z"/> <path d="M5480 4509 c0 -178 29 -273 91 -297 54 -20 159 -13 188 13 21 20 28 20 35 0 5 -14 31 -25 58 -25 l48 0 0 240 0 240 -60 0 -60 0 2 -147 c3 -167 -23 -233 -89 -233 -77 0 -93 37 -93 214 l0 166 -60 0 -60 0 0 -171z"/> <path d="M4380 4490 c0 -49 4 -50 140 -50 136 0 140 1 140 50 0 49 -4 50 -140 50 -136 0 -140 -1 -140 -50z"/> </g> </svg> 